<?xml version="1.0" encoding="utf-8"?>
<!-- Generator: Adobe Illustrator 25.4.1, SVG Export Plug-In . SVG Version: 6.00 Build 0)  -->
<svg version="1.1" id="Layer_1" xmlns="http://www.w3.org/2000/svg" xmlns:xlink="http://www.w3.org/1999/xlink" x="0px" y="0px"
	 viewBox="0 0 32 32" style="enable-background:new 0 0 32 32;" xml:space="preserve">
<style type="text/css">
	.st0{fill:url(#SVGID_1_);}
	
		.st1{fill:url(#SVGID_00000101816884713760388210000013463551678291218048_);stroke:#FFFFFF;stroke-width:0.25;stroke-miterlimit:10;}
</style>
<linearGradient id="SVGID_1_" gradientUnits="userSpaceOnUse" x1="4.6863" y1="4.6863" x2="27.3137" y2="27.3137">
	<stop  offset="0.05" style="stop-color:#696969"/>
	<stop  offset="0.15" style="stop-color:#4F4F4F"/>
	<stop  offset="0.25" style="stop-color:#333333"/>
	<stop  offset="0.35" style="stop-color:#252525"/>
	<stop  offset="0.45" style="stop-color:#0A0A0A"/>
	<stop  offset="0.55" style="stop-color:#033933"/>
	<stop  offset="0.65" style="stop-color:#03433B"/>
	<stop  offset="0.75" style="stop-color:#024C42"/>
	<stop  offset="0.85" style="stop-color:#017365"/>
	<stop  offset="0.95" style="stop-color:#1E776D"/>
</linearGradient>
<path class="st0" d="M16,32L16,32C7.16,32,0,24.84,0,16v0C0,7.16,7.16,0,16,0h0c8.84,0,16,7.16,16,16v0C32,24.84,24.84,32,16,32z"/>
<g>
	
		<linearGradient id="SVGID_00000101792939552485912120000002259782218204201101_" gradientUnits="userSpaceOnUse" x1="8.0955" y1="23.941" x2="23.9188" y2="8.1178">
		<stop  offset="0.05" style="stop-color:#696969"/>
		<stop  offset="0.15" style="stop-color:#4F4F4F"/>
		<stop  offset="0.25" style="stop-color:#333333"/>
		<stop  offset="0.35" style="stop-color:#252525"/>
		<stop  offset="0.45" style="stop-color:#0A0A0A"/>
		<stop  offset="0.55" style="stop-color:#033933"/>
		<stop  offset="0.65" style="stop-color:#03433B"/>
		<stop  offset="0.75" style="stop-color:#024C42"/>
		<stop  offset="0.85" style="stop-color:#017365"/>
		<stop  offset="0.95" style="stop-color:#1E776D"/>
	</linearGradient>
	
		<path style="fill:url(#SVGID_00000101792939552485912120000002259782218204201101_);stroke:#FFFFFF;stroke-width:0.25;stroke-miterlimit:10;" d="
		M10.19,25.44c-0.26,0-0.5-0.06-0.74-0.19c-0.23-0.13-0.35-0.32-0.35-0.58V7.62c0-0.4,0.12-0.67,0.35-0.83
		c0.23-0.15,0.48-0.23,0.74-0.23c0.28,0,0.51,0.05,0.71,0.15c0.2,0.1,0.38,0.25,0.54,0.45c0.16,0.2,0.32,0.45,0.48,0.76L16,15.7
		l4.08-7.78c0.17-0.31,0.34-0.56,0.5-0.76c0.16-0.2,0.34-0.35,0.54-0.45c0.2-0.1,0.43-0.15,0.68-0.15c0.29,0,0.55,0.08,0.76,0.23
		c0.22,0.16,0.32,0.43,0.32,0.83v17.05c0,0.26-0.11,0.45-0.33,0.58c-0.23,0.13-0.47,0.19-0.75,0.19c-0.27,0-0.53-0.06-0.75-0.19
		c-0.22-0.13-0.34-0.32-0.34-0.58V11.1l-3.93,7.34c-0.12,0.21-0.25,0.36-0.39,0.45c-0.14,0.09-0.28,0.14-0.44,0.14
		c-0.12,0-0.26-0.04-0.4-0.13c-0.15-0.09-0.28-0.24-0.4-0.46L11.27,11v13.67c0,0.26-0.11,0.45-0.33,0.58
		C10.71,25.38,10.46,25.44,10.19,25.44z"/>
</g>
</svg>
